<?xml version="1.0" encoding="UTF-8"?>
<svg width="36px" height="36px" viewBox="0 0 36 36" version="1.1" xmlns="http://www.w3.org/2000/svg" xmlns:xlink="http://www.w3.org/1999/xlink">
    <title>编组 14</title>
    <g id="最新08/21" stroke="none" stroke-width="1" fill="none" fill-rule="evenodd">
        <g id="切图文件" transform="translate(-1136.000000, -1021.000000)">
            <g id="编组-14" transform="translate(1136.000000, 1021.000000)">
                <circle id="椭圆形" fill="#FF4A4A" cx="18" cy="18" r="18"></circle>
                <g id="cuowu-2" transform="translate(11.000000, 11.000000)" fill="#FFFFFF" fill-rule="nonzero" stroke="#FFFFFF">
                    <path d="M0.257198263,1.49906133 C-0.0857327543,1.15613032 -0.0857327543,0.60012928 0.257198263,0.257198263 C0.60012928,-0.0857327543 1.15613032,-0.0857327543 1.49906133,0.257198263 L13.7427817,12.5009187 C13.9646192,12.7227561 14.0512566,13.0460913 13.9700585,13.3491269 C13.8888603,13.6521625 13.6521625,13.8888603 13.3491269,13.9700585 C13.0460913,14.0512566 12.7227561,13.9646192 12.5009187,13.7427817 L0.257198263,1.49906133 Z" id="路径"></path>
                    <path d="M12.5009387,0.257198263 C12.8438697,-0.0857327543 13.3998707,-0.0857327543 13.7428017,0.257198263 C14.0857328,0.60012928 14.0857328,1.15613032 13.7428017,1.49906133 L1.49908133,13.7427817 C1.27724386,13.9646192 0.953908704,14.0512566 0.650873083,13.9700585 C0.347837462,13.8888603 0.111139698,13.6521625 0.029941548,13.3491269 C-0.0512566019,13.0460913 0.0353807927,12.7227561 0.257218264,12.5009187 L12.5009387,0.257198263 Z" id="路径"></path>
                </g>
            </g>
        </g>
    </g>
</svg>