<?xml version="1.0" encoding="UTF-8"?>
<svg width="370px" height="220px" viewBox="0 0 370 220" version="1.1" xmlns="http://www.w3.org/2000/svg" xmlns:xlink="http://www.w3.org/1999/xlink">
    <title>编组 28</title>
    <defs>
        <rect id="path-1" x="0" y="0" width="370" height="220"></rect>
    </defs>
    <g id="最新08/21" stroke="none" stroke-width="1" fill="none" fill-rule="evenodd">
        <g id="切图文件" transform="translate(-1102.000000, -2176.000000)">
            <g id="编组-28" transform="translate(1102.000000, 2176.000000)">
                <mask id="mask-2" fill="white">
                    <use xlink:href="#path-1"></use>
                </mask>
                <use id="蒙版" fill-opacity="0" fill="#FFFFFF" xlink:href="#path-1"></use>
                <g mask="url(#mask-2)" id="椭圆形" stroke-linecap="round" stroke-width="16">
                    <g transform="translate(10.705923, -20.899607)">
                        <path d="M244.825446,275.015029 C260.145881,255.067588 269.253145,230.098939 269.253145,203.003175 C269.253145,137.65195 216.275509,84.6743146 150.924284,84.6743146 C123.317864,84.6743146 97.9194914,94.1280903 77.7899907,109.974817" stroke="#EEFBF7" transform="translate(173.521568, 179.844672) rotate(-45.000000) translate(-173.521568, -179.844672) "></path>
                        <path d="M261.702769,296.271413 C283.195922,270.322058 296.114107,237.012281 296.114107,200.6853 C296.114107,117.872792 228.981305,50.7399903 146.168798,50.7399903 C109.988459,50.7399903 76.801015,63.5540913 50.8972967,84.8914607" stroke="#D4F6E2" transform="translate(173.505702, 173.505702) rotate(-45.000000) translate(-173.505702, -173.505702) "></path>
                    </g>
                </g>
            </g>
        </g>
    </g>
</svg>