<?xml version="1.0" encoding="UTF-8"?>
<svg width="36px" height="36px" viewBox="0 0 36 36" version="1.1" xmlns="http://www.w3.org/2000/svg" xmlns:xlink="http://www.w3.org/1999/xlink">
    <title>编组 14</title>
    <g id="最新08/21" stroke="none" stroke-width="1" fill="none" fill-rule="evenodd">
        <g id="切图文件" transform="translate(-1075.000000, -1021.000000)">
            <g id="编组-14" transform="translate(1075.000000, 1021.000000)">
                <circle id="椭圆形" fill="#0ECE74" cx="18" cy="18" r="18"></circle>
                <g id="queren-zhengque" transform="translate(8.000000, 12.000000)" fill="#FFFFFF" fill-rule="nonzero">
                    <path d="M1.54605493,4.91493451 C1.92044074,4.91493451 2.29482654,5.09827161 2.60681471,5.40383346 L7.28663724,10.1705982 C7.53622778,10.47616 7.66102304,10.47616 7.97301121,10.1705982 C10.8433024,7.2372045 13.7135935,4.3649232 16.5838847,1.43152953 C16.8958728,1.12596769 17.207861,0.759293479 17.5198492,0.453731638 C18.0814279,-0.0962796749 18.8925971,-0.157392043 19.4541758,0.331506902 C20.0781522,0.820405847 20.2029474,1.73709137 19.6413687,2.34821505 C19.0173924,3.08156347 18.3310184,3.75379952 17.6446444,4.42603557 C14.7119557,7.4205416 11.7792669,10.4150476 8.78418045,13.4095537 C8.03540885,14.1429021 7.22423961,14.2040145 6.53786564,13.5317784 C4.47874372,11.4539579 2.41962181,9.37613738 0.422897527,7.29831687 C-0.013885909,6.80941792 -0.138681176,6.25940661 0.173306992,5.7093953 C0.422897527,5.22049635 0.859680964,4.91493451 1.54605493,4.91493451 Z" id="路径"></path>
                </g>
            </g>
        </g>
    </g>
</svg>